<?xml version="1.0" ?>
<!-- Uploaded to: SVG Repo, www.svgrepo.com, Generator: SVG Repo Mixer Tools -->
<svg fill="#000000" width="800px" height="800px" viewBox="0 0 64 64" xmlns="http://www.w3.org/2000/svg">
<g data-name="Gemstone ring" id="Gemstone_ring">
<path d="M32,27h0a12.26,12.26,0,1,0,8.67,3.59A12.19,12.19,0,0,0,32,27Zm0,22.53A10.27,10.27,0,0,1,32,29h0a10.27,10.27,0,0,1,0,20.53Z"/>
<path d="M11.6,20.06a6.68,6.68,0,0,1,3,3c.49,1,.84,1.68,1.68,1.68S17.42,24,17.91,23a6.68,6.68,0,0,1,2.95-3c1-.49,1.68-.85,1.68-1.69s-.7-1.19-1.68-1.68a6.73,6.73,0,0,1-2.95-3c-.49-1-.84-1.68-1.68-1.68s-1.19.7-1.68,1.68a6.73,6.73,0,0,1-3,3h0c-1,.49-1.68.85-1.68,1.68S10.62,19.57,11.6,20.06Zm4.63-5.22a8.7,8.7,0,0,0,3.53,3.53,8.72,8.72,0,0,0-3.53,3.54,8.74,8.74,0,0,0-3.54-3.54A8.72,8.72,0,0,0,16.23,14.84Z"/>
<path d="M50.77,27.84c-.22-1.07-.38-1.84-1.19-2.06s-1.33.37-2.06,1.19a6.36,6.36,0,0,1-1.67,1.34,17.61,17.61,0,0,0-5-4.34A3,3,0,0,0,39.55,19l1.18-2.84a1,1,0,0,0,0-.77L38.44,9.9a1,1,0,0,0-.54-.54L32.38,7.08a.92.92,0,0,0-.76,0L26.1,9.36a1,1,0,0,0-.54.54l-2.29,5.52a1,1,0,0,0,0,.77l1.19,2.86A3,3,0,0,0,23.19,24,17.67,17.67,0,0,0,32,57h0A17.72,17.72,0,0,0,49.7,39.31a17.5,17.5,0,0,0-.34-3.4A6.57,6.57,0,0,1,52,34.71c1.07-.23,1.84-.39,2.06-1.19s-.38-1.34-1.19-2.07A6.67,6.67,0,0,1,50.77,27.84ZM33,18.86V16.8h5.31l-.86,2.06Zm-6.45,0-.86-2.07H31v2.07ZM33,9.5l2.75,1.14L33,13.39Zm-2,3.89-2.75-2.75L31,9.5Zm7.31,1.41h-3.9l2.76-2.75ZM26.83,12.05l2.76,2.75h-3.9Zm-1.4,8.82H38.57a1,1,0,0,1,1,1.05,1,1,0,0,1-1,1.05L25.43,23h0a1,1,0,0,1-.75-.31,1.08,1.08,0,0,1-.3-.75A1.06,1.06,0,0,1,25.43,20.87ZM32,55a15.68,15.68,0,0,1-6.35-30l12.7,0a15.65,15.65,0,0,1,5.53,4.1c-1.06.22-1.82.39-2,1.19s.37,1.33,1.19,2.06a6.72,6.72,0,0,1,2.08,3.61c.22,1.07.38,1.84,1.19,2.06a1.26,1.26,0,0,0,.33.05,1.51,1.51,0,0,0,1-.44,16.37,16.37,0,0,1,.1,1.72A15.72,15.72,0,0,1,32,55ZM47,35.3A8.71,8.71,0,0,0,44.53,31a8.75,8.75,0,0,0,4.33-2.5,8.79,8.79,0,0,0,2.5,4.33A9,9,0,0,0,47,35.3Z"/>
</g>
</svg>